<svg width="49" height="49" viewBox="0 0 49 49" fill="none" xmlns="http://www.w3.org/2000/svg">
<g clip-path="url(#clip0_1_222)">
<path d="M24.5 0C18.0037 0 11.7677 2.58284 7.17773 7.17582C2.58308 11.7706 0.00127274 18.0021 0 24.5C0 30.9952 2.58398 37.2312 7.17773 41.8242C11.7677 46.4172 18.0037 49 24.5 49C30.9963 49 37.2323 46.4172 41.8223 41.8242C46.416 37.2312 49 30.9952 49 24.5C49 18.0048 46.416 11.7688 41.8223 7.17582C37.2323 2.58284 30.9963 0 24.5 0Z" fill="url(#paint0_linear_1_222)"/>
<path d="M11.0901 24.2411C18.2334 21.1296 22.9956 19.0781 25.3767 18.087C32.1831 15.2569 33.5956 14.7653 34.5182 14.7487C34.7211 14.7454 35.1728 14.7956 35.4676 15.0339C35.7126 15.2349 35.7815 15.5066 35.816 15.6975C35.8466 15.8881 35.8887 16.3226 35.8542 16.6618C35.4867 20.5358 33.8904 29.937 33.0788 34.2761C32.7381 36.1121 32.0606 36.7277 31.406 36.7878C29.9819 36.9187 28.9024 35.8476 27.5242 34.9445C25.369 33.5308 24.1517 32.6511 22.0577 31.2718C19.6383 29.6778 21.2078 28.8015 22.586 27.3698C22.9458 26.995 29.2163 21.2931 29.3349 20.7759C29.3503 20.7112 29.3656 20.47 29.2201 20.3429C29.0785 20.2154 28.8679 20.2591 28.7148 20.2935C28.4966 20.3425 25.0551 22.6195 18.3788 27.1241C17.4027 27.7955 16.5184 28.1228 15.7221 28.1056C14.8493 28.0868 13.1649 27.611 11.9131 27.2044C10.3819 26.7056 9.16072 26.4419 9.26791 25.5947C9.3215 25.1537 9.93017 24.7024 11.0901 24.2411Z" fill="white"/>
</g>
<defs>
<linearGradient id="paint0_linear_1_222" x1="2450" y1="0" x2="2450" y2="4900" gradientUnits="userSpaceOnUse">
<stop stop-color="#2AABEE"/>
<stop offset="1" stop-color="#229ED9"/>
</linearGradient>
<clipPath id="clip0_1_222">
<rect width="49" height="49" fill="white"/>
</clipPath>
</defs>
</svg>
